<svg fill="none" height="120" viewBox="0 0 120 120" width="120" xmlns="http://www.w3.org/2000/svg" xmlns:xlink="http://www.w3.org/1999/xlink"><linearGradient id="a" gradientUnits="userSpaceOnUse" x1="60" x2="60" y1="48.5234" y2="87.3806"><stop offset="0" stop-color="#ff9035"/><stop offset="1" stop-color="#ffcc34"/></linearGradient><linearGradient id="b" gradientUnits="userSpaceOnUse" x1="60.0007" x2="60.0007" y1="48.5234" y2="63.0949"><stop offset="0" stop-color="#fff"/><stop offset=".653846" stop-color="#fff"/></linearGradient><rect fill="#ffe5b7" height="120" rx="60" width="120"/><path d="m45.5476 51.0778c.8472-1.5733 2.4898-2.5544 4.2766-2.5544h20.3516c1.7868 0 3.4294.9811 4.2766 2.5544l15.6923 29.1429c1.7424 3.2359-.6013 7.1599-4.2766 7.1599h-51.7362c-3.6753 0-6.019-3.924-4.2766-7.1599z" fill="url(#a)"/><path d="m70.229 48.5234h-20.4566c-1.6921 0-3.2622.8806-4.1445 2.3244l-7.4843 12.2471 7.8585-3.6515c1.9467-.9045 4.1933-.9045 6.1401 0l4.7884 2.225c1.9468.9045 4.1934.9045 6.1402 0l4.7884-2.225c1.9468-.9045 4.1934-.9045 6.1401 0l7.8585 3.6515-7.4843-12.2471c-.8823-1.4438-2.4524-2.3244-4.1445-2.3244z" fill="url(#b)"/><path d="m57.5711 33.9526.0001 14.5715" stroke="#ff8442" stroke-width="4.85714"/><path d="m55.1426 29.0956c0-1.3413 1.0873-2.4286 2.4285-2.4286h19.2646c1.0296 0 1.592 1.2007.9329 1.9916l-3.1161 3.7394c-.7505.9006-.7505 2.2088 0 3.1094l3.1161 3.7394c.6591.7909.0967 1.9916-.9329 1.9916h-19.2645c-1.3413 0-2.4286-1.0873-2.4286-2.4286z" fill="#ff8442"/></svg>