<svg fill="none" height="40" viewBox="0 0 40 40" width="40" xmlns="http://www.w3.org/2000/svg"><rect fill="#c0e8e4" height="40" rx="12" width="40"/><path d="m29.1538 20.9231c.5523 0 1.0047.4486.9549.9987-.1664 1.8384-.7903 3.6117-1.8217 5.1553-1.2171 1.8216-2.9471 3.2414-4.9711 4.0798-2.0241.8383-4.2513 1.0577-6.4.6303s-4.1224-1.4824-5.6715-3.0315c-1.54918-1.5492-2.60415-3.5229-3.03156-5.6716s-.20805-4.3759.63034-6.3999c.83839-2.0241 2.25812-3.7541 4.07972-4.9712 1.5436-1.0314 3.317-1.6553 5.1554-1.82171.55-.04978.9986.40261.9986.95491v9.0769c0 .5523.4477 1 1 1z" fill="#00d4be"/><path d="m11.9515 28.0486c-.3906.3905-1.0277.3932-1.3814-.031-1.18228-1.4176-1.99508-3.1127-2.35726-4.9335-.42741-2.1487-.20805-4.3759.63034-6.3999.83839-2.0241 2.25812-3.7541 4.07972-4.9712 1.5436-1.0314 3.317-1.6553 5.1554-1.82171.55-.04978.9986.40261.9986.95491v9.6627c0 .2652-.1053.5196-.2929.7071z" fill="#00b4bd"/><path d="m20.9231 9c0-.55229.4486-1.00468.9987-.95489 1.1123.10069 2.2049.36921 3.2403.79807 1.3439.55667 2.565 1.37262 3.5936 2.40122 1.0286 1.0285 1.8445 2.2497 2.4012 3.5936.4288 1.0353.6973 2.128.798 3.2403.0498.55-.4026.9986-.9549.9986h-9.0769c-.5523 0-1-.4477-1-1z" fill="#008fba"/></svg>