<svg fill="none" height="120" viewBox="0 0 120 120" width="120" xmlns="http://www.w3.org/2000/svg" xmlns:xlink="http://www.w3.org/1999/xlink"><linearGradient id="a" gradientUnits="userSpaceOnUse" x1="60.2252" x2="60.2252" y1="32.6997" y2="89.8997"><stop offset="0" stop-color="#8ce6e3"/><stop offset="1" stop-color="#09d5c0"/></linearGradient><rect fill="#c7f2eb" height="120" rx="60" width="120"/><rect fill="url(#a)" height="57.2" rx="5.2" width="46.8" x="36.8252" y="32.6997"/><path d="m36.8252 37.8997c0-2.8719 2.3281-5.2 5.2-5.2h36.4c2.8719 0 5.2 2.3281 5.2 5.2v7.8h-46.8z" fill="#fff"/><g fill="#0e959d"><path d="m44.625 53.5h31.2v5.2h-31.2z"/><path d="m44.625 63.8999h31.2v5.2h-31.2z"/><path d="m44.625 74.2998h31.2v5.2h-31.2z"/></g><g fill="#5ebabf"><rect height="5.2" rx="2.6" transform="matrix(0 1 -1 0 105.9253 -45.7251)" width="7.8" x="75.8252" y="30.1001"/><rect height="5.2" rx="2.6" transform="matrix(0 1 -1 0 92.9263 -32.7261)" width="7.8" x="62.8262" y="30.1001"/><rect height="5.2" rx="2.6" transform="matrix(0 1 -1 0 79.9253 -19.7251)" width="7.8" x="49.8252" y="30.1001"/></g></svg>