<svg fill="none" height="32" viewBox="0 0 32 32" width="32" xmlns="http://www.w3.org/2000/svg" xmlns:xlink="http://www.w3.org/1999/xlink"><linearGradient id="a" gradientUnits="userSpaceOnUse" x1="16" x2="16" y1="7.77734" y2="24.8885"><stop offset="0" stop-color="#8ce6e3"/><stop offset="1" stop-color="#09d5c0"/></linearGradient><rect fill="#c7f2eb" height="32" rx="8" width="32"/><path d="m9 9.3329c0-.85911.69645-1.55556 1.5556-1.55556h10.8888c.8592 0 1.5556.69645 1.5556 1.55556v14c0 .8591-.6964 1.5556-1.5556 1.5556h-10.8888c-.85915 0-1.5556-.6965-1.5556-1.5556z" fill="url(#a)"/><path d="m9 9.3329c0-.85911.69645-1.55556 1.5556-1.55556h10.8888c.8592 0 1.5556.69645 1.5556 1.55556v2.3333h-14z" fill="#fff"/><g fill="#0e959d"><path d="m11.333 14h9.3333v1.5556h-9.3333z"/><path d="m11.333 17.1113h9.3333v1.5556h-9.3333z"/><path d="m11.333 20.2227h9.3333v1.5555h-9.3333z"/></g><path d="m19.8892 7c.4296 0 .7778.34822.7778.77778v.77778c0 .42955-.3482.77777-.7778.77777-.4295 0-.7778-.34822-.7778-.77777v-.77778c0-.42956.3483-.77778.7778-.77778z" fill="#5ebabf"/><path d="m15.9996 7c.4295 0 .7777.34822.7777.77778v.77778c0 .42955-.3482.77777-.7777.77777-.4296 0-.7778-.34822-.7778-.77777v-.77778c0-.42956.3482-.77778.7778-.77778z" fill="#5ebabf"/><path d="m12.1109 7c.4295 0 .7778.34822.7778.77778v.77778c0 .42955-.3483.77777-.7778.77777-.4296 0-.7778-.34822-.7778-.77777v-.77778c0-.42956.3482-.77778.7778-.77778z" fill="#5ebabf"/></svg>