<svg fill="none" height="120" viewBox="0 0 120 120" width="120" xmlns="http://www.w3.org/2000/svg" xmlns:xlink="http://www.w3.org/1999/xlink"><linearGradient id="a" gradientUnits="userSpaceOnUse" x1="60.1591" x2="60.1591" y1="34.314" y2="92.9457"><stop offset="0" stop-color="#ff8442"/><stop offset="1" stop-color="#ffa845"/></linearGradient><rect fill="#feefdc" height="120" rx="60" width="120"/><rect fill="url(#a)" height="58.6317" rx="5.09842" width="50.9841" x="34.667" y="34.314"/><rect fill="#fff" height="48.4349" rx="2.54921" width="40.7873" x="39.7656" y="39.4126"/><path d="m47.4131 34.314h25.492v10.1968c0 1.4079-1.1413 2.5492-2.5492 2.5492h-20.3936c-1.4079 0-2.5492-1.1413-2.5492-2.5492z" fill="#f36a47"/><circle cx="60.1593" cy="34.3141" fill="#f36a47" r="7.64762"/><circle cx="60.1596" cy="34.3143" fill="#ffd19b" r="2.54921"/><g fill="#d9d9d9"><path d="m55.0264 53.9395h19.8v3.66667h-19.8z"/><path d="m55.0264 73.7397h19.8v3.66667h-19.8z"/><path d="m55.0264 63.4731h19.8v3.66667h-19.8z"/></g><path d="m46.5518 55.6979 1.6828 1.6829c.1074.1074.2816.1074.3889 0l3.1431-3.143" stroke="#ef6c00" stroke-linecap="round" stroke-width="2.93333"/><path d="m46.5518 75.4977 1.6828 1.6829c.1074.1074.2816.1074.3889 0l3.1431-3.143" stroke="#ef6c00" stroke-linecap="round" stroke-width="2.93333"/><path d="m46.5518 65.2311 1.6828 1.6829c.1074.1074.2816.1074.3889 0l3.1431-3.143" stroke="#ef6c00" stroke-linecap="round" stroke-width="2.93333"/></svg>