<svg fill="none" height="49" viewBox="0 0 49 49" width="49" xmlns="http://www.w3.org/2000/svg"><path d="m21.5819 1.663c1.1038-2.217538 4.2675-2.217536 5.3714 0l6.1715 12.3985c.2909.5844.7645 1.0579 1.3489 1.3488l12.3985 6.1716c2.2175 1.1038 2.2175 4.2675 0 5.3714l-12.3985 6.1715c-.5844.2909-1.058.7645-1.3489 1.3489l-6.1715 12.3985c-1.1039 2.2175-4.2676 2.2175-5.3714 0l-6.1716-12.3985c-.2909-.5844-.7644-1.058-1.3488-1.3489l-12.3985-6.1715c-2.217538-1.1039-2.217536-4.2676 0-5.3714l12.3985-6.1716c.5844-.2909 1.0579-.7644 1.3488-1.3488z" fill="#ffeb9c"/></svg>