<svg viewBox="0 0 218 154" xmlns="http://www.w3.org/2000/svg" xmlns:xlink="http://www.w3.org/1999/xlink"><linearGradient id="a" gradientTransform="matrix(1 0 0 -1 0 155)" gradientUnits="userSpaceOnUse" x1="29.2" x2="114.8" y1="18.5" y2="-5.4"><stop offset="0" stop-color="#ebebeb"/><stop offset="1" stop-color="#b3b3b3"/></linearGradient><linearGradient id="b" gradientTransform="matrix(0 1 1 -0 -87.2 -21.6)" gradientUnits="userSpaceOnUse" x1="176.9" x2="176.9" y1="189.7" y2="124.8"><stop offset="0" stop-color="#006a90"/><stop offset="1" stop-color="#006387"/></linearGradient><g opacity=".6"><path d="m222 82.8c0 43.9-40.1 56.2-87.2 56.2s-83.8-12.2-83.8-56.2 36.7-82.8 83.8-82.8c75.3 0 87.2 53 87.2 82.8z" fill="#18bdad"/><ellipse cx="154.3" cy="74.8" fill="#fff" rx="26.7" ry="26.4"/><circle cx="105.6" cy="74.8" fill="#fff" r="26.4"/><circle cx="96.7" cy="77.5" fill="#333" r="15.1"/><circle cx="91" cy="77.2" fill="#665d5d" r="4.4"/><circle cx="98.9" cy="81.9" fill="#665d5d" r="1.9"/><circle cx="146.8" cy="77.5" fill="#333" r="15.1"/><circle cx="139.3" cy="77.2" fill="#665d5d" r="4.4"/><circle cx="147.9" cy="81.9" fill="#665d5d" r="1.9"/><ellipse cx="130.4" cy="107" fill="#766e59" rx="4.4" ry="5.8"/><path d="m2.9 41.3c1.6-.9 3.7-.4 4.6 1.2l26.6 46.1c.9 1.6.4 3.7-1.2 4.6-1.6.9-3.7.4-4.6-1.2l-26.6-46c-.9-1.6-.4-3.7 1.2-4.6z" fill="#263840"/><circle cx="33.6" cy="99.6" fill="#00a898" r="25.3"/><path d="m108.9 123.7c9.9.8 16.7 10.5 14.1 20.1l-7.9 29.6c-2 7.5-9.1 12.5-16.8 11.8l-27.9-2.4s-.2 0-.2 0l-3.1-.3v-.5c.1 0-7.8-2.1-7.8-2.1v.5c-.1 0-3-1.3-3-1.3h-.2v-.1l-25.3-11.9c-7-3.3-10.7-11.1-8.7-18.6l7.9-29.6c2.6-9.6 13.2-14.6 22.2-10.3l22.4 10.5 9.6 2.6 24.6 2.1z" fill="url(#a)" fill-rule="evenodd"/><path d="m22.3 119.8c2.5-9.5 13-14.5 22-10.5l29.7 13.3-16.8 62.8-34.4-15.4c-7.2-3.2-11-11.2-8.9-18.8l8.4-31.5z" fill="#006386"/><path d="m129.2 148.4c2.5-9.5-4-19-13.8-20.1l-32.4-3.4-16.8 62.8 37.5 3.9c7.8.8 15.1-4.2 17.1-11.8l8.4-31.5z" fill="#006386"/><path d="m90.7 142.5c.5-1.8 2.2-3 4.1-2.8l22.2 2.4c2.3.2 3.9 2.5 3.3 4.8-.5 1.8-2.2 3-4.1 2.8l-22.2-2.4c-2.3-.2-3.9-2.5-3.3-4.8z" fill="#7bb5ce"/><path d="m37.6 150.6h64.9v9.4h-64.9z" fill="url(#b)" transform="matrix(.25881905 -.96592583 .96592583 .25881905 -98.1 182.8)"/></g><circle cx="2.9" cy="23.9" fill="#6effb2" r="2.5"/><path d="m16 .5c.3-.8 1.5-.8 1.8 0l1.8 4.2c.1.2.3.4.5.5l4.2 1.8c.8.3.8 1.5 0 1.8l-4.2 1.8c-.2.1-.4.3-.5.5l-1.8 4.2c-.3.8-1.5.8-1.8 0l-1.8-4.2c-.1-.2-.3-.4-.5-.5l-4.2-1.8c-.8-.3-.8-1.5 0-1.8l4.2-1.8c.2-.1.4-.3.5-.5l1.8-4.2z" fill="#7ff8f8" fill-opacity=".7"/></svg>