<svg fill="none" height="40" viewBox="0 0 40 40" width="40" xmlns="http://www.w3.org/2000/svg" xmlns:xlink="http://www.w3.org/1999/xlink"><linearGradient id="a" gradientUnits="userSpaceOnUse" x1="20" x2="20" y1="16" y2="32"><stop offset="0" stop-color="#ff9035"/><stop offset="1" stop-color="#ffcc34"/></linearGradient><linearGradient id="b" gradientUnits="userSpaceOnUse" x1="20" x2="20" y1="16" y2="22"><stop offset="0" stop-color="#fff"/><stop offset=".653846" stop-color="#fff"/></linearGradient><rect fill="#ffe5b7" height="40" rx="12" width="40"/><path d="m14.049 17.0518c.3489-.6478 1.0252-1.0518 1.761-1.0518h8.38c.7358 0 1.4121.404 1.761 1.0518l6.4615 12c.7175 1.3325-.2476 2.9482-1.7609 2.9482h-21.30317c-1.51335 0-2.47842-1.6157-1.76094-2.9482z" fill="url(#a)"/><path d="m24.2117 16h-8.4234c-.6967 0-1.3432.3626-1.7065.9571l-3.0818 5.0429 3.2359-1.5035c.8016-.3725 1.7266-.3725 2.5282 0l1.9718.9161c.8016.3725 1.7266.3725 2.5282 0l1.9718-.9161c.8016-.3725 1.7266-.3725 2.5282 0l3.2359 1.5035-3.0818-5.0429c-.3633-.5945-1.0098-.9571-1.7065-.9571z" fill="url(#b)"/><path d="m19 10v6" stroke="#ff8442" stroke-width="2"/><path d="m18 8c0-.55228.4477-1 1-1h7.9325c.4239 0 .6555.49443.3841.82009l-1.2831 1.53973c-.3091.37084-.3091.90948 0 1.28038l1.2831 1.5397c.2714.3257.0398.8201-.3841.8201h-7.9325c-.5523 0-1-.4477-1-1z" fill="#ff8442"/></svg>