<svg fill="none" height="119" viewBox="0 0 120 119" width="120" xmlns="http://www.w3.org/2000/svg" xmlns:xlink="http://www.w3.org/1999/xlink"><linearGradient id="a" gradientUnits="userSpaceOnUse" x1="51.9187" x2="33.1603" y1="14.5152" y2="84.5225"><stop offset="0" stop-color="#8ce6e3"/><stop offset="1" stop-color="#68d8cd"/></linearGradient><linearGradient id="b" gradientUnits="userSpaceOnUse" x1="21.0905" x2="78.4089" y1="14.9305" y2="30.289"><stop offset="0" stop-color="#fff"/><stop offset="1" stop-color="#e1f7fa"/></linearGradient><linearGradient id="c"><stop offset="0" stop-color="#abccce"/><stop offset="1" stop-color="#8fb0b2"/></linearGradient><linearGradient id="d" gradientUnits="userSpaceOnUse" x1="40.1784" x2="52.4088" xlink:href="#c" y1="7.08641" y2="7.08641"/><linearGradient id="e" gradientUnits="userSpaceOnUse" x1="55.5787" x2="67.8092" xlink:href="#c" y1="10.2573" y2="10.2573"/><linearGradient id="f" gradientUnits="userSpaceOnUse" x1="70.9801" x2="83.2106" xlink:href="#c" y1="13.8813" y2="13.8813"/><linearGradient id="g" gradientUnits="userSpaceOnUse" x1="77.9968" x2="60.6345" y1="57.6996" y2="109.89"><stop offset="0" stop-color="#6ddbd7"/><stop offset="1" stop-color="#c2f2f0"/></linearGradient><linearGradient id="h" gradientUnits="userSpaceOnUse" x1="56.4231" x2="63.3223" y1="56.163" y2="68.1127"><stop offset="0" stop-color="#fff"/><stop offset="1" stop-color="#f4fcff"/></linearGradient><g opacity=".7"><path d="m21.1889 14.5634c1.1435-4.2678 5.5302-6.80044 9.7979-5.65691l41.8637 11.21731c4.2677 1.1436 6.8004 5.5303 5.6568 9.798l-14.6173 54.5525c-1.1435 4.2677-5.5302 6.8004-9.7979 5.6568l-41.8637-11.2173c-4.26771-1.1435-6.80037-5.5302-5.65684-9.798z" fill="url(#a)"/><path d="m21.1889 14.5633c1.1435-4.2677 5.5302-6.80034 9.7979-5.65681l41.8637 11.21731c4.2677 1.1436 6.8004 5.5303 5.6568 9.798l-2.2673 8.4618-57.3185-15.3585z" fill="url(#b)"/><g fill="#d9d9d9"><circle cx="35.5368" cy="16.2315" r="2.94437"/><circle cx="50.9362" cy="20.3086" r="2.94437"/><circle cx="66.3376" cy="23.9317" r="2.94437"/></g><rect fill="#0e959d" height="4.07683" rx="2.03841" transform="matrix(.96592583 .25881905 -.25881905 .96592583 9.893579 -5.565191)" width="39.4093" x="26.0827" y="34.792"/><rect fill="#0e959d" height="3.62384" rx="1.81192" transform="matrix(.96592583 .25881905 -.25881905 .96592583 13.171245 -4.20774)" width="39.4093" x="22.5661" y="47.9189"/><rect fill="#0e959d" height="3.62384" rx="1.81192" transform="matrix(.96592583 .25881905 -.25881905 .96592583 16.33947 -2.895793)" width="39.4093" x="19.1676" y="60.6074"/><rect fill="url(#d)" height="3.17086" rx="1.58543" transform="matrix(-.25881905 .96592583 -.96592583 -.25881905 55.890874 -31.884616)" width="12.2305" x="40.1784" y="5.50098"/><rect fill="url(#e)" height="3.17086" rx="1.58543" transform="matrix(-.25881905 .96592583 -.96592583 -.25881905 78.339919 -42.768574)" width="12.2305" x="55.5787" y="8.67188"/><rect fill="url(#f)" height="3.17086" rx="1.58543" transform="matrix(-.25881905 .96592583 -.96592583 -.25881905 101.228029 -53.083199)" width="12.2305" x="70.9801" y="12.2959"/><path d="m82.8059 113.76 13.1325-49.0113c.2876-1.0732-.3547-2.1751-1.4303-2.4537l-28.0744-7.2719c-.516-.1337-1.0641-.0558-1.5225.2164l-13.896 8.2508c-.4409.2617-.7644.6829-.9037 1.1763l-10.5771 37.4714c-.3029 1.073.3301 2.186 1.4071 2.475l39.4149 10.561c1.067.286 2.1637-.347 2.4495-1.414z" fill="url(#g)"/><path d="m105.932 62.6523c.479-.2761 1.09-.1122 1.366.3661l.913 1.5802c.276.4783.112 1.0899-.366 1.3661l-22.1536 12.7903c-.1102.0636-.2315.1056-.3574.1237l-2.4316.3504c-.8935.1287-1.4867-.8988-.9284-1.6082l1.5191-1.9306c.0787-.1.1757-.184.2859-.2476z" fill="#2d5364"/><path d="m63.3223 68.1127 2.5872-13.4434-15.5232 8.9623z" fill="url(#h)"/></g></svg>