<svg fill="none" height="54" viewBox="0 0 279 54" width="279" xmlns="http://www.w3.org/2000/svg" xmlns:xlink="http://www.w3.org/1999/xlink"><filter id="a" color-interpolation-filters="sRGB" filterUnits="userSpaceOnUse" height="53.3333" width="53.3333" x="-.000163" y="-0"><feFlood flood-opacity="0" result="BackgroundImageFix"/><feColorMatrix in="SourceAlpha" result="hardAlpha" type="matrix" values="0 0 0 0 0 0 0 0 0 0 0 0 0 0 0 0 0 0 127 0"/><feOffset dy="2.66667"/><feGaussianBlur stdDeviation="5.33333"/><feComposite in2="hardAlpha" operator="out"/><feColorMatrix type="matrix" values="0 0 0 0 1 0 0 0 0 0.619006 0 0 0 0 0.348077 0 0 0 0.2 0"/><feBlend in2="BackgroundImageFix" mode="normal" result="effect1_dropShadow_13460_64256"/><feBlend in="SourceGraphic" in2="effect1_dropShadow_13460_64256" mode="normal" result="shape"/></filter><g filter="url(#a)"><rect fill="#ff8442" height="32" rx="8" width="32" x="10.6665" y="8"/><path d="m30.8718 20.0769h-.4286c-.5714 0-1.1428.0513-1.7143.1795-.5714.1539-.9523.4103-1.0952.7693-.0476.1025-.0476.2051-.0476.3077 0 .3589.2857.6666.7143.9487.3333.2051.7619.4102 1.1428.6154.6667.4102 2.3334.6923 3.0476 1.0512.7619.359 1.4286.7436 2.1429 1.1282.7143.4103 1.0476.9231 1.2857 1.4359.1905.4103.2857.7949.2857 1.2052 0 .2564-.0476.5384-.1428.7948-.0953.6411-.6191 1.1795-1 1.718-.2857.3333-.7143.6154-1.0477.9487-.0952.1282-.3333.2308-.5238.359-.4762.282-1 .5384-1.619.7436-.0476.0256-.1429.0513-.2381.0769-1.8095.4615-3.6667.7949-6.2857.9231-.5714.0256-1.4762.0513-2.1429.0513h-.2857c-1.1905 0-1.3483-.0513-2.2531-.0513-.3333 0-1.0476-.1795-1.3333-.2821-.6667-.3333-.789-.4224-1-.6666-.3986-.4616-1-1.0257-1-1.6667 0-.8462 0-.5641 0-1.3333 0-.3847.6014-1.3662.6014-1.3662s.0653-.3005.3986-.6338l.6667-.3334s.7619-.3333 1-.3333c0 0 .3483.0256 1.1102.0256.619 0 1.2381-.0256 1.7143-.1025 1.1428-.1795 2.1904-.4616 2.9524-.9744.3809-.2564.5714-.5641.5714-.8461 0-.3077-.2381-.6154-.6667-.8206-.3333-.2051-.619-.4102-.9524-.6153-.5238-.2821-1.3333-.5385-1.9523-.7693-.4762-.1538-.9048-.3333-1.2858-.5128-.5714-.282-1.1428-.5897-1.6666-.8974-.7143-.4359-1.1429-.8718-1.6667-1.4872-.3333-.4359-.4286-.718-.4762-1.1795v-.1538c0-1.2308 1.4762-1.9744 2.8095-2.5129 1.7143-.7179 3.8096-.9487 6.6191-1.1025.6667-.0513 1.3809-.0513 2.0476-.0513 1.9524 0 4.4286 0 5.9048.5384.5238.4616.7619.5129.8571.7949l.2381.718c0 .282 0 .4871.0476.9487.0476.2564.0476.3846.0476.641 0 .4616-.0476.5186-.3333.6923l-.3333.3334c-.6667.3333-1.3334.6666-1.6667.6666-.3809 0-1.6667.0769-3.0476.0769z" fill="#fff"/></g><g fill="#333"><path d="m153.039 33.3959c-1.336 0-2.516-.292-3.54-.876-1.024-.592-1.828-1.38-2.412-2.364-.576-.984-.864-2.064-.864-3.24 0-.856.164-1.672.492-2.448.336-.784.808-1.476 1.416-2.076.608-.608 1.328-1.084 2.16-1.428.832-.352 1.748-.528 2.748-.528 1.336 0 2.516.296 3.54.888 1.024.584 1.824 1.368 2.4 2.352s.864 2.064.864 3.24c0 .856-.164 1.676-.492 2.46-.328.776-.796 1.464-1.404 2.064s-1.328 1.076-2.16 1.428-1.748.528-2.748.528zm0-3.384c.56 0 1.064-.124 1.512-.372.448-.256.8-.616 1.056-1.08s.384-1.012.384-1.644c0-.64-.128-1.188-.384-1.644-.248-.464-.596-.82-1.044-1.068-.448-.256-.956-.384-1.524-.384s-1.076.128-1.524.384c-.448.248-.8.604-1.056 1.068-.256.456-.384 1.004-.384 1.644 0 .632.128 1.18.384 1.644.264.464.62.824 1.068 1.08.448.248.952.372 1.512.372z"/><path d="m137.043 33.3959c-1.16 0-2.2-.268-3.12-.804-.92-.544-1.644-1.3-2.172-2.268-.528-.976-.792-2.112-.792-3.408 0-.92.152-1.772.456-2.556s.728-1.468 1.272-2.052c.552-.592 1.204-1.052 1.956-1.38s1.576-.492 2.472-.492c.936 0 1.78.184 2.532.552s1.408.916 1.968 1.644l-.9.9v-7.776h3.936v17.28h-3.396v-3.18l.54.888c-.352.784-.94 1.424-1.764 1.92-.824.488-1.82.732-2.988.732zm.732-3.384c.56 0 1.064-.124 1.512-.372.448-.256.8-.616 1.056-1.08s.384-1.012.384-1.644c0-.64-.128-1.188-.384-1.644-.248-.464-.596-.82-1.044-1.068-.448-.256-.956-.384-1.524-.384s-1.076.128-1.524.384c-.448.248-.8.604-1.056 1.068-.256.456-.384 1.004-.384 1.644 0 .632.128 1.18.384 1.644.264.464.62.824 1.068 1.08.448.248.952.372 1.512.372z"/><path d="m122.75 27.9719v-3.444h7.056v3.444z"/><path d="m114.77 33.3959c-1.336 0-2.516-.292-3.54-.876-1.024-.592-1.828-1.38-2.412-2.364-.576-.984-.864-2.064-.864-3.24 0-.856.164-1.672.492-2.448.336-.784.808-1.476 1.416-2.076.608-.608 1.328-1.084 2.16-1.428.832-.352 1.748-.528 2.748-.528 1.336 0 2.516.296 3.54.888 1.024.584 1.824 1.368 2.4 2.352s.864 2.064.864 3.24c0 .856-.164 1.676-.492 2.46-.328.776-.796 1.464-1.404 2.064s-1.328 1.076-2.16 1.428-1.748.528-2.748.528zm0-3.384c.56 0 1.064-.124 1.512-.372.448-.256.8-.616 1.056-1.08s.384-1.012.384-1.644c0-.64-.128-1.188-.384-1.644-.248-.464-.596-.82-1.044-1.068-.448-.256-.956-.384-1.524-.384s-1.076.128-1.524.384c-.448.248-.8.604-1.056 1.068-.256.456-.384 1.004-.384 1.644 0 .632.128 1.18.384 1.644.264.464.62.824 1.068 1.08.448.248.952.372 1.512.372z"/><path d="m104.276 33.3959c-1.36 0-2.428-.38-3.204-1.14-.776-.768-1.1643-1.912-1.1643-3.432v-11.532h3.9363v3.504h2.868v3.12h-2.868v4.224c0 .656.144 1.116.432 1.38s.66.396 1.116.396c.248 0 .492-.028.732-.084.248-.064.476-.156.684-.276l.504 3.084c-.376.208-.828.384-1.356.528-.528.152-1.088.228-1.68.228zm-6.7443-9.48v-3.12h2.7363v3.12z"/><path d="m83.9243 33.3959c-1.16 0-2.2-.268-3.12-.804-.92-.544-1.644-1.3-2.172-2.268-.528-.976-.792-2.112-.792-3.408 0-.92.152-1.772.456-2.556s.728-1.468 1.272-2.052c.552-.592 1.204-1.052 1.956-1.38s1.576-.492 2.472-.492c.936 0 1.78.184 2.532.552s1.408.916 1.968 1.644l-.9.9v-7.776h3.936v17.28h-3.396v-3.18l.54.888c-.352.784-.94 1.424-1.764 1.92-.824.488-1.82.732-2.988.732zm.732-3.384c.56 0 1.064-.124 1.512-.372.448-.256.8-.616 1.056-1.08s.384-1.012.384-1.644c0-.64-.128-1.188-.384-1.644-.248-.464-.596-.82-1.044-1.068-.448-.256-.956-.384-1.524-.384s-1.076.128-1.524.384c-.448.248-.8.604-1.056 1.068-.256.456-.384 1.004-.384 1.644 0 .632.128 1.18.384 1.644.264.464.62.824 1.068 1.08.448.248.952.372 1.512.372z"/><path d="m72.3132 33.0359v-12.24h3.936v12.24zm1.968-14.052c-.632 0-1.184-.196-1.656-.588-.464-.4-.696-.932-.696-1.596 0-.68.232-1.216.696-1.608.472-.392 1.024-.588 1.656-.588.64 0 1.192.196 1.656.588s.696.928.696 1.608c0 .664-.232 1.196-.696 1.596-.464.392-1.016.588-1.656.588z"/><path d="m65.8145 33.0359v-17.28h3.936v17.28z"/><path d="m57.4225 33.3959c-1.272 0-2.508-.188-3.708-.564s-2.216-.92-3.048-1.632l1.872-2.976c.352.376.8.7 1.344.972s1.124.484 1.74.636c.624.144 1.228.216 1.812.216.824 0 1.492-.136 2.004-.408.52-.28.78-.684.78-1.212 0-.432-.188-.796-.564-1.092-.368-.296-1.06-.58-2.076-.852l-1.44-.408c-1.728-.48-2.972-1.136-3.732-1.968s-1.14-1.832-1.14-3c0-.752.16-1.444.48-2.076.32-.64.768-1.192 1.344-1.656.576-.472 1.252-.836 2.028-1.092.784-.264 1.636-.396 2.556-.396 1.272 0 2.452.188 3.54.564 1.096.368 1.976.872 2.64 1.512l-1.944 2.88c-.304-.32-.68-.6-1.128-.84s-.936-.428-1.464-.564-1.06-.204-1.596-.204c-.528 0-.988.068-1.38.204s-.7.332-.924.588c-.216.248-.324.544-.324.888 0 .28.08.516.24.708.168.184.444.36.828.528.392.168.92.352 1.584.552l1.464.432c1.72.504 2.964 1.136 3.732 1.896s1.152 1.748 1.152 2.964c0 1.064-.272 2.004-.816 2.82-.544.808-1.316 1.44-2.316 1.896-.992.456-2.172.684-3.54.684z"/></g></svg>