<svg fill="none" height="40" viewBox="0 0 280 40" width="280" xmlns="http://www.w3.org/2000/svg" xmlns:xlink="http://www.w3.org/1999/xlink"><filter id="a" color-interpolation-filters="sRGB" filterUnits="userSpaceOnUse" height="40" width="40" x="0" y="0"><feFlood flood-opacity="0" result="BackgroundImageFix"/><feColorMatrix in="SourceAlpha" result="hardAlpha" type="matrix" values="0 0 0 0 0 0 0 0 0 0 0 0 0 0 0 0 0 0 127 0"/><feOffset dy="2"/><feGaussianBlur stdDeviation="4"/><feComposite in2="hardAlpha" operator="out"/><feColorMatrix type="matrix" values="0 0 0 0 1 0 0 0 0 0.619006 0 0 0 0 0.348077 0 0 0 0.2 0"/><feBlend in2="BackgroundImageFix" mode="normal" result="effect1_dropShadow_13460_64268"/><feBlend in="SourceGraphic" in2="effect1_dropShadow_13460_64268" mode="normal" result="shape"/></filter><g filter="url(#a)"><rect fill="#ff8442" height="24" rx="6" width="24" x="8" y="6"/><path d="m23.1541 15.0577h-.3214c-.4286 0-.8572.0385-1.2858.1346-.4285.1154-.7142.3077-.8214.5769-.0357.077-.0357.1539-.0357.2308 0 .2692.2143.5.5357.7115.25.1539.5714.3077.8572.4616.5.3077 1.75.5192 2.2857.7884.5714.2693 1.0714.5577 1.6071.8462.5357.3077.7857.6923.9643 1.0769.1429.3077.2143.5962.2143.9039 0 .1923-.0357.4038-.1072.5961-.0714.4808-.4642.8846-.75 1.2885-.2142.25-.5357.4615-.7857.7115-.0714.0962-.25.1731-.3928.2692-.3572.2116-.75.4039-1.2143.5577-.0357.0193-.1072.0385-.1786.0577-1.3571.3462-2.75.5962-4.7143.6923-.4285.0193-1.1071.0385-1.6071.0385h-.2143c-.8929 0-1.0112-.0385-1.6898-.0385-.25 0-.7857-.1346-1-.2115-.5-.25-.5918-.3168-.75-.5-.299-.3462-.75-.7692-.75-1.25 0-.6346 0-.4231 0-1 0-.2885.451-1.0246.451-1.0246s.049-.2254.299-.4754l.5-.25s.5714-.25.75-.25c0 0 .2612.0192.8327.0192.4642 0 .9285-.0192 1.2857-.0769.8571-.1346 1.6428-.3461 2.2143-.7308.2857-.1923.4285-.423.4285-.6346 0-.2307-.1785-.4615-.5-.6154-.25-.1538-.4643-.3077-.7143-.4615-.3928-.2115-1-.4038-1.4642-.5769-.3572-.1154-.6786-.25-.9643-.3846-.4286-.2116-.8572-.4423-1.25-.6731-.5357-.3269-.8572-.6539-1.25-1.1154-.25-.3269-.3215-.5385-.3572-.8846v-.1154c0-.9231 1.1072-1.4808 2.1072-1.8846 1.2857-.5385 2.8571-.7116 4.9643-.8269.5-.0385 1.0357-.0385 1.5357-.0385 1.4643 0 3.3214 0 4.4285.4038.3929.3462.5715.3847.6429.5962l.1786.5385c0 .2115 0 .3653.0357.7115.0357.1923.0357.2885.0357.4808 0 .3461-.0357.3889-.25.5192l-.25.25c-.5.25-1 .5-1.25.5-.2857 0-1.25.0577-2.2857.0577z" fill="#fff"/></g><g fill="#333"><path d="m108.249 24.264c-.891 0-1.678-.1947-2.36-.584-.683-.3947-1.219-.92-1.608-1.576-.384-.656-.576-1.376-.576-2.16 0-.5707.109-1.1147.328-1.632.224-.5227.538-.984.944-1.384.405-.4054.885-.7227 1.44-.952.554-.2347 1.165-.352 1.832-.352.89 0 1.677.1973 2.36.592.682.3893 1.216.912 1.6 1.568s.576 1.376.576 2.16c0 .5706-.11 1.1173-.328 1.64-.219.5173-.531.976-.936 1.376-.406.4-.886.7173-1.44.952-.555.2346-1.166.352-1.832.352zm0-2.256c.373 0 .709-.0827 1.008-.248.298-.1707.533-.4107.704-.72.17-.3094.256-.6747.256-1.096 0-.4267-.086-.792-.256-1.096-.166-.3094-.398-.5467-.696-.712-.299-.1707-.638-.256-1.016-.256-.379 0-.718.0853-1.016.256-.299.1653-.534.4026-.704.712-.171.304-.256.6693-.256 1.096 0 .4213.085.7866.256 1.096.176.3093.413.5493.712.72.298.1653.634.248 1.008.248z"/><path d="m97.5843 24.264c-.7733 0-1.4666-.1787-2.08-.536-.6133-.3627-1.096-.8667-1.448-1.512-.352-.6507-.528-1.408-.528-2.272 0-.6134.1014-1.1814.304-1.704.2027-.5227.4854-.9787.848-1.368.368-.3947.8027-.7014 1.304-.92.5014-.2187 1.0507-.328 1.648-.328.624 0 1.1867.1226 1.688.368.5014.2453.9387.6106 1.3117 1.096l-.6.6v-5.184h2.624v11.52h-2.264v-2.12l.36.592c-.234.5226-.626.9493-1.1757 1.28-.5493.3253-1.2133.488-1.992.488zm.488-2.256c.3734 0 .7094-.0827 1.008-.248.2987-.1707.5334-.4107.704-.72.1707-.3094.2557-.6747.2557-1.096 0-.4267-.085-.792-.2557-1.096-.1653-.3094-.3973-.5467-.696-.712-.2986-.1707-.6373-.256-1.016-.256-.3786 0-.7173.0853-1.016.256-.2986.1653-.5333.4026-.704.712-.1706.304-.256.6693-.256 1.096 0 .4213.0854.7866.256 1.096.176.3093.4134.5493.712.72.2987.1653.6347.248 1.008.248z"/><path d="m88.0562 20.648v-2.296h4.704v2.296z"/><path d="m82.7354 24.264c-.8907 0-1.6773-.1947-2.36-.584-.6827-.3947-1.2187-.92-1.608-1.576-.384-.656-.576-1.376-.576-2.16 0-.5707.1093-1.1147.328-1.632.224-.5227.5387-.984.944-1.384.4053-.4054.8853-.7227 1.44-.952.5547-.2347 1.1653-.352 1.832-.352.8907 0 1.6773.1973 2.36.592.6827.3893 1.216.912 1.6 1.568s.576 1.376.576 2.16c0 .5706-.1093 1.1173-.328 1.64-.2187.5173-.5307.976-.936 1.376s-.8853.7173-1.44.952c-.5547.2346-1.1653.352-1.832.352zm0-2.256c.3733 0 .7093-.0827 1.008-.248.2987-.1707.5333-.4107.704-.72.1707-.3094.256-.6747.256-1.096 0-.4267-.0853-.792-.256-1.096-.1653-.3094-.3973-.5467-.696-.712-.2987-.1707-.6373-.256-1.016-.256s-.7173.0853-1.016.256c-.2987.1653-.5333.4026-.704.712-.1707.304-.256.6693-.256 1.096 0 .4213.0853.7866.256 1.096.176.3093.4133.5493.712.72.2987.1653.6347.248 1.008.248z"/><path d="m75.7397 24.264c-.9067 0-1.6187-.2533-2.136-.76-.5174-.512-.776-1.2747-.776-2.288v-7.688h2.624v2.336h1.912v2.08h-1.912v2.816c0 .4373.096.744.288.92s.44.264.744.264c.1653 0 .328-.0187.488-.056.1653-.0427.3173-.104.456-.184l.336 2.056c-.2507.1387-.552.256-.904.352-.352.1013-.7254.152-1.12.152zm-4.496-6.32v-2.08h1.824v2.08z"/><path d="m62.1717 24.264c-.7733 0-1.4666-.1787-2.08-.536-.6133-.3627-1.096-.8667-1.448-1.512-.352-.6507-.528-1.408-.528-2.272 0-.6134.1014-1.1814.304-1.704.2027-.5227.4854-.9787.848-1.368.368-.3947.8027-.7014 1.304-.92.5014-.2187 1.0507-.328 1.648-.328.624 0 1.1867.1226 1.688.368.5014.2453.9387.6106 1.312 1.096l-.6.6v-5.184h2.624v11.52h-2.264v-2.12l.36.592c-.2346.5226-.6266.9493-1.176 1.28-.5493.3253-1.2133.488-1.992.488zm.488-2.256c.3734 0 .7094-.0827 1.008-.248.2987-.1707.5334-.4107.704-.72.1707-.3094.256-.6747.256-1.096 0-.4267-.0853-.792-.256-1.096-.1653-.3094-.3973-.5467-.696-.712-.2986-.1707-.6373-.256-1.016-.256-.3786 0-.7173.0853-1.016.256-.2986.1653-.5333.4026-.704.712-.1706.304-.256.6693-.256 1.096 0 .4213.0854.7866.256 1.096.176.3093.4134.5493.712.72.2987.1653.6347.248 1.008.248z"/><path d="m54.4313 24.024v-8.16h2.624v8.16zm1.312-9.368c-.4213 0-.7893-.1307-1.104-.392-.3093-.2667-.464-.6214-.464-1.064 0-.4534.1547-.8107.464-1.072.3147-.2614.6827-.392 1.104-.392.4267 0 .7947.1306 1.104.392.3093.2613.464.6186.464 1.072 0 .4426-.1547.7973-.464 1.064-.3093.2613-.6773.392-1.104.392z"/><path d="m50.0986 24.024v-11.52h2.624v11.52z"/><path d="m44.504 24.264c-.848 0-1.672-.1254-2.472-.376-.8-.2507-1.4773-.6134-2.032-1.088l1.248-1.984c.2347.2506.5333.4666.896.648.3627.1813.7493.3226 1.16.424.416.096.8187.144 1.208.144.5493 0 .9947-.0907 1.336-.272.3467-.1867.52-.456.52-.808 0-.288-.1253-.5307-.376-.728-.2453-.1974-.7067-.3867-1.384-.568l-.96-.272c-1.152-.32-1.9813-.7574-2.488-1.312-.5067-.5547-.76-1.2214-.76-2 0-.5014.1067-.9627.32-1.384.2133-.4267.512-.7947.896-1.104.384-.3147.8347-.5574 1.352-.728.5227-.176 1.0907-.264 1.704-.264.848 0 1.6347.1253 2.36.376.7307.2453 1.3173.5813 1.76 1.008l-1.296 1.92c-.2027-.2134-.4533-.4-.752-.56s-.624-.2854-.976-.376c-.352-.0907-.7067-.136-1.064-.136-.352 0-.6587.0453-.92.136-.2613.0906-.4667.2213-.616.392-.144.1653-.216.3626-.216.592 0 .1866.0533.344.16.472.112.1226.296.24.552.352.2613.112.6133.2346 1.056.368l.976.288c1.1467.336 1.976.7573 2.488 1.264.512.5066.768 1.1653.768 1.976 0 .7093-.1813 1.336-.544 1.88-.3627.5386-.8773.96-1.544 1.264-.6613.304-1.448.456-2.36.456z"/></g></svg>