<svg fill="none" height="80" viewBox="0 0 284 80" width="284" xmlns="http://www.w3.org/2000/svg" xmlns:xlink="http://www.w3.org/1999/xlink"><filter id="a" color-interpolation-filters="sRGB" filterUnits="userSpaceOnUse" height="80" width="80" x="0" y="0"><feFlood flood-opacity="0" result="BackgroundImageFix"/><feColorMatrix in="SourceAlpha" result="hardAlpha" type="matrix" values="0 0 0 0 0 0 0 0 0 0 0 0 0 0 0 0 0 0 127 0"/><feOffset dy="4"/><feGaussianBlur stdDeviation="8"/><feComposite in2="hardAlpha" operator="out"/><feColorMatrix type="matrix" values="0 0 0 0 1 0 0 0 0 0.619006 0 0 0 0 0.348077 0 0 0 0.2 0"/><feBlend in2="BackgroundImageFix" mode="normal" result="effect1_dropShadow_13460_64244"/><feBlend in="SourceGraphic" in2="effect1_dropShadow_13460_64244" mode="normal" result="shape"/></filter><g filter="url(#a)"><rect fill="#ff8442" height="48" rx="12" width="48" x="16" y="12"/><path d="m46.3082 30.1154h-.6429c-.8571 0-1.7143.0769-2.5714.2692-.8572.2308-1.4286.6154-1.6429 1.1539-.0714.1538-.0714.3077-.0714.4615 0 .5385.4286 1 1.0714 1.4231.5.3077 1.1429.6154 1.7143.9231 1 .6153 3.5 1.0384 4.5714 1.5769 1.1429.5384 2.1429 1.1154 3.2143 1.6923 1.0715.6154 1.5715 1.3846 1.9286 2.1538.2857.6154.4286 1.1923.4286 1.8077 0 .3846-.0715.8077-.2143 1.1923-.1429.9616-.9286 1.7693-1.5 2.577-.4286.5-1.0714.923-1.5714 1.423-.1429.1923-.5.3462-.7858.5385-.7142.4231-1.5.8077-2.4285 1.1154-.0715.0384-.2143.0769-.3572.1154-2.7143.6923-5.5 1.1923-9.4285 1.3846-.8572.0384-2.2143.0769-3.2143.0769h-.4286c-1.7857 0-2.0225-.0769-3.3796-.0769-.5 0-1.5714-.2693-2-.4231-1-.5-1.1836-.6336-1.5-1-.5979-.6923-1.5-1.5385-1.5-2.5 0-1.2692 0-.8462 0-2 0-.5769.9021-2.0492.9021-2.0492s.0979-.4508.5979-.9508l1-.5s1.1428-.5 1.5-.5c0 0 .5225.0385 1.6653.0385.9286 0 1.8572-.0385 2.5714-.1539 1.7143-.2692 3.2858-.6923 4.4286-1.4615.5714-.3846.8572-.8462.8572-1.2693 0-.4615-.3572-.923-1-1.2307-.5-.3077-.9286-.6154-1.4286-.9231-.7857-.4231-2-.8077-2.9286-1.1538-.7143-.2308-1.3571-.5-1.9286-.7693-.8571-.4231-1.7142-.8846-2.5-1.3461-1.0714-.6539-1.7142-1.3077-2.5-2.2308-.5-.6538-.6428-1.0769-.7142-1.7692v-.2308c0-1.8462 2.2142-2.9615 4.2142-3.7692 2.5715-1.077 5.7143-1.4231 9.9286-1.6539 1-.0769 2.0714-.0769 3.0714-.0769 2.9286 0 6.6429 0 8.8572.8077.7857.6923 1.1428.7692 1.2857 1.1923l.3571 1.0769c0 .4231 0 .7308.0715 1.4231.0714.3846.0714.5769.0714.9615 0 .6923-.0714.778-.5 1.0385l-.5.5c-1 .5-2 1-2.5 1-.5714 0-2.5.1154-4.5714.1154z" fill="#fff"/></g><g fill="#333"><path d="m207.966 47.745c-1.67 0-3.145-.365-4.425-1.095-1.28-.74-2.285-1.725-3.015-2.955-.72-1.23-1.08-2.58-1.08-4.05 0-1.07.205-2.09.615-3.06.42-.98 1.01-1.845 1.77-2.595.76-.76 1.66-1.355 2.7-1.785 1.04-.44 2.185-.66 3.435-.66 1.67 0 3.145.37 4.425 1.11 1.28.73 2.28 1.71 3 2.94s1.08 2.58 1.08 4.05c0 1.07-.205 2.095-.615 3.075-.41.97-.995 1.83-1.755 2.58s-1.66 1.345-2.7 1.785-2.185.66-3.435.66zm0-4.23c.7 0 1.33-.155 1.89-.465.56-.32 1-.77 1.32-1.35s.48-1.265.48-2.055c0-.8-.16-1.485-.48-2.055-.31-.58-.745-1.025-1.305-1.335-.56-.32-1.195-.48-1.905-.48s-1.345.16-1.905.48c-.56.31-1 .755-1.32 1.335-.32.57-.48 1.255-.48 2.055 0 .79.16 1.475.48 2.055.33.58.775 1.03 1.335 1.35.56.31 1.19.465 1.89.465z"/><path d="m187.97 47.7451c-1.45 0-2.75-.335-3.9-1.005-1.15-.68-2.055-1.625-2.715-2.835-.66-1.22-.99-2.64-.99-4.26 0-1.15.19-2.215.57-3.195s.91-1.835 1.59-2.565c.69-.74 1.505-1.315 2.445-1.725s1.97-.615 3.09-.615c1.17 0 2.225.23 3.165.69s1.76 1.145 2.46 2.055l-1.125 1.125v-9.72h4.92v21.6h-4.245v-3.975l.675 1.11c-.44.98-1.175 1.78-2.205 2.4-1.03.61-2.275.915-3.735.915zm.915-4.23c.7 0 1.33-.155 1.89-.465.56-.32 1-.77 1.32-1.35s.48-1.265.48-2.055c0-.8-.16-1.485-.48-2.055-.31-.58-.745-1.025-1.305-1.335-.56-.32-1.195-.48-1.905-.48s-1.345.16-1.905.48c-.56.31-1 .755-1.32 1.335-.32.57-.48 1.255-.48 2.055 0 .79.16 1.475.48 2.055.33.58.775 1.03 1.335 1.35.56.31 1.19.465 1.89.465z"/><path d="m170.105 40.965v-4.305h8.82v4.305z"/><path d="m160.129 47.745c-1.67 0-3.145-.365-4.425-1.095-1.28-.74-2.285-1.725-3.015-2.955-.72-1.23-1.08-2.58-1.08-4.05 0-1.07.205-2.09.615-3.06.42-.98 1.01-1.845 1.77-2.595.76-.76 1.66-1.355 2.7-1.785 1.04-.44 2.185-.66 3.435-.66 1.67 0 3.145.37 4.425 1.11 1.28.73 2.28 1.71 3 2.94s1.08 2.58 1.08 4.05c0 1.07-.205 2.095-.615 3.075-.41.97-.995 1.83-1.755 2.58s-1.66 1.345-2.7 1.785-2.185.66-3.435.66zm0-4.23c.7 0 1.33-.155 1.89-.465.56-.32 1-.77 1.32-1.35s.48-1.265.48-2.055c0-.8-.16-1.485-.48-2.055-.31-.58-.745-1.025-1.305-1.335-.56-.32-1.195-.48-1.905-.48s-1.345.16-1.905.48c-.56.31-1 .755-1.32 1.335-.32.57-.48 1.255-.48 2.055 0 .79.16 1.475.48 2.055.33.58.775 1.03 1.335 1.35.56.31 1.19.465 1.89.465z"/><path d="m147.012 47.745c-1.7 0-3.035-.475-4.005-1.425-.97-.96-1.455-2.39-1.455-4.29v-14.415h4.92v4.38h3.585v3.9h-3.585v5.28c0 .82.18 1.395.54 1.725s.825.495 1.395.495c.31 0 .615-.035.915-.105.31-.08.595-.195.855-.345l.63 3.855c-.47.26-1.035.48-1.695.66-.66.19-1.36.285-2.1.285zm-8.43-11.85v-3.9h3.42v3.9z"/><path d="m121.572 47.7451c-1.45 0-2.75-.335-3.9-1.005-1.15-.68-2.055-1.625-2.715-2.835-.66-1.22-.99-2.64-.99-4.26 0-1.15.19-2.215.57-3.195s.91-1.835 1.59-2.565c.69-.74 1.505-1.315 2.445-1.725s1.97-.615 3.09-.615c1.17 0 2.225.23 3.165.69s1.76 1.145 2.46 2.055l-1.125 1.125v-9.72h4.92v21.6h-4.245v-3.975l.675 1.11c-.44.98-1.175 1.78-2.205 2.4-1.03.61-2.275.915-3.735.915zm.915-4.23c.7 0 1.33-.155 1.89-.465.56-.32 1-.77 1.32-1.35s.48-1.265.48-2.055c0-.8-.16-1.485-.48-2.055-.31-.58-.745-1.025-1.305-1.335-.56-.32-1.195-.48-1.905-.48s-1.345.16-1.905.48c-.56.31-1 .755-1.32 1.335-.32.57-.48 1.255-.48 2.055 0 .79.16 1.475.48 2.055.33.58.775 1.03 1.335 1.35.56.31 1.19.465 1.89.465z"/><path d="m107.059 47.295v-15.3h4.92v15.3zm2.46-17.565c-.79 0-1.48-.245-2.07-.735-.58-.5-.87-1.165-.87-1.995 0-.85.29-1.52.87-2.01.59-.49 1.28-.735 2.07-.735.8 0 1.49.245 2.07.735s.87 1.16.87 2.01c0 .83-.29 1.495-.87 1.995-.58.49-1.27.735-2.07.735z"/><path d="m98.9351 47.2951v-21.6h4.9199v21.6z"/><path d="m88.445 47.745c-1.59 0-3.135-.235-4.635-.705s-2.77-1.15-3.81-2.04l2.34-3.72c.44.47 1 .875 1.68 1.215s1.405.605 2.175.795c.78.18 1.535.27 2.265.27 1.03 0 1.865-.17 2.505-.51.65-.35.975-.855.975-1.515 0-.54-.235-.995-.705-1.365-.46-.37-1.325-.725-2.595-1.065l-1.8-.51c-2.16-.6-3.715-1.42-4.665-2.46s-1.425-2.29-1.425-3.75c0-.94.2-1.805.6-2.595.4-.8.96-1.49 1.68-2.07.72-.59 1.565-1.045 2.535-1.365.98-.33 2.045-.495 3.195-.495 1.59 0 3.065.235 4.425.705 1.37.46 2.47 1.09 3.3 1.89l-2.43 3.6c-.38-.4-.85-.75-1.41-1.05s-1.17-.535-1.83-.705-1.325-.255-1.995-.255c-.66 0-1.235.085-1.725.255s-.875.415-1.155.735c-.27.31-.405.68-.405 1.11 0 .35.1.645.3.885.21.23.555.45 1.035.66.49.21 1.15.44 1.98.69l1.83.54c2.15.63 3.705 1.42 4.665 2.37s1.44 2.185 1.44 3.705c0 1.33-.34 2.505-1.02 3.525-.68 1.01-1.645 1.8-2.895 2.37-1.24.57-2.715.855-4.425.855z"/></g></svg>