<svg viewBox="0 0 200.47 48" xmlns="http://www.w3.org/2000/svg"><rect fill="#ef8045" height="48" rx="12" width="48"/><path d="m30.31 18.12h-.64c-.86 0-1.71.08-2.57.27-.86.23-1.43.62-1.64 1.15-.07.15-.07.31-.07.46 0 .54.43 1 1.07 1.42.5.31 1.14.62 1.71.92 1 .62 3.5 1.04 4.57 1.58 1.14.54 2.14 1.12 3.21 1.69 1.07.62 1.57 1.38 1.93 2.15.29.62.43 1.19.43 1.81 0 .38-.07.81-.21 1.19-.14.96-.93 1.77-1.5 2.58-.43.5-1.07.92-1.57 1.42-.14.19-.5.35-.79.54-.71.42-1.5.81-2.43 1.12-.07.04-.21.08-.36.12-2.71.69-5.5 1.19-9.43 1.38-.86.04-2.21.08-3.21.08h-.43c-1.79 0-2.02-.08-3.38-.08-.5 0-1.57-.27-2-.42-1-.5-1.18-.63-1.5-1-.6-.69-1.5-1.54-1.5-2.5v-2c0-.58.9-2.05.9-2.05s.1-.45.6-.95l1-.5s1.14-.5 1.5-.5c0 0 .52.04 1.67.04.93 0 1.86-.04 2.57-.15 1.71-.27 3.29-.69 4.43-1.46.57-.38.86-.85.86-1.27 0-.46-.36-.92-1-1.23-.5-.31-.93-.62-1.43-.92-.79-.42-2-.81-2.93-1.15-.71-.23-1.36-.5-1.93-.77-.86-.42-1.71-.88-2.5-1.35-1.07-.65-1.71-1.31-2.5-2.23-.5-.65-.64-1.08-.71-1.77v-.23c0-1.85 2.21-2.96 4.21-3.77 2.57-1.08 5.71-1.42 9.93-1.65 1-.08 2.07-.08 3.07-.08 2.93 0 6.64 0 8.86.81.79.69 1.14.77 1.29 1.19l.36 1.08c0 .42 0 .73.07 1.42.07.38.07.58.07.96 0 .69-.07.78-.5 1.04l-.5.5c-1 .5-2 1-2.5 1-.57 0-2.5.12-4.57.12z" fill="#fff"/><g fill="#333"><path d="m191.97 35.74c-1.67 0-3.15-.36-4.43-1.1s-2.29-1.72-3.01-2.95-1.08-2.58-1.08-4.05c0-1.07.21-2.09.62-3.06.42-.98 1.01-1.85 1.77-2.6.76-.76 1.66-1.35 2.7-1.78 1.04-.44 2.18-.66 3.43-.66 1.67 0 3.14.37 4.43 1.11 1.28.73 2.28 1.71 3 2.94s1.08 2.58 1.08 4.05c0 1.07-.2 2.09-.61 3.07-.41.97-1 1.83-1.76 2.58s-1.66 1.35-2.7 1.78c-1.04.44-2.18.66-3.43.66zm0-4.23c.7 0 1.33-.15 1.89-.47s1-.77 1.32-1.35.48-1.27.48-2.06-.16-1.49-.48-2.06c-.31-.58-.74-1.03-1.3-1.33-.56-.32-1.2-.48-1.9-.48s-1.35.16-1.9.48c-.56.31-1 .75-1.32 1.33-.32.57-.48 1.25-.48 2.06s.16 1.47.48 2.06c.33.58.78 1.03 1.34 1.35.56.31 1.19.47 1.89.47z"/><path d="m171.97 35.74c-1.45 0-2.75-.33-3.9-1.01s-2.06-1.62-2.72-2.83c-.66-1.22-.99-2.64-.99-4.26 0-1.15.19-2.22.57-3.19s.91-1.83 1.59-2.56c.69-.74 1.51-1.31 2.45-1.72s1.97-.62 3.09-.62 2.23.23 3.17.69 1.76 1.15 2.46 2.06l-1.12 1.12v-9.72h4.92v21.6h-4.24v-3.97l.68 1.11c-.44.98-1.18 1.78-2.21 2.4-1.03.61-2.28.92-3.74.92zm.91-4.23c.7 0 1.33-.16 1.89-.47.56-.32 1-.77 1.32-1.35s.48-1.26.48-2.06-.16-1.48-.48-2.05c-.31-.58-.74-1.03-1.31-1.34-.56-.32-1.19-.48-1.9-.48s-1.35.16-1.9.48c-.56.31-1 .76-1.32 1.34-.32.57-.48 1.25-.48 2.05s.16 1.48.48 2.06c.33.58.77 1.03 1.33 1.35.56.31 1.19.47 1.89.47z"/><path d="m154.1 28.96v-4.31h8.82v4.31z"/><path d="m144.13 35.74c-1.67 0-3.15-.36-4.43-1.1s-2.29-1.72-3.01-2.95-1.08-2.58-1.08-4.05c0-1.07.21-2.09.62-3.06.42-.98 1.01-1.85 1.77-2.6.76-.76 1.66-1.35 2.7-1.78 1.04-.44 2.19-.66 3.44-.66 1.67 0 3.14.37 4.42 1.11 1.28.73 2.28 1.71 3 2.94s1.08 2.58 1.08 4.05c0 1.07-.21 2.09-.61 3.07-.41.97-1 1.83-1.76 2.58s-1.66 1.35-2.7 1.78c-1.04.44-2.18.66-3.43.66zm0-4.23c.7 0 1.33-.15 1.89-.47s1-.77 1.32-1.35.48-1.27.48-2.06-.16-1.49-.48-2.06c-.31-.58-.74-1.03-1.3-1.33-.56-.32-1.2-.48-1.9-.48s-1.35.16-1.9.48c-.56.31-1 .75-1.32 1.33-.32.57-.48 1.25-.48 2.06s.16 1.47.48 2.06c.33.58.77 1.03 1.34 1.35.56.31 1.19.47 1.89.47z"/><path d="m131.01 35.74c-1.7 0-3.03-.47-4-1.42-.97-.96-1.46-2.39-1.46-4.29v-14.41h4.92v4.38h3.59v3.9h-3.59v5.28c0 .82.18 1.4.54 1.73s.83.49 1.4.49c.31 0 .62-.03.92-.1.31-.08.6-.19.85-.35l.63 3.85c-.47.26-1.04.48-1.7.66-.66.19-1.36.28-2.1.28zm-8.43-11.84v-3.9h3.42v3.9z"/><path d="m105.57 35.74c-1.45 0-2.75-.33-3.9-1.01s-2.06-1.62-2.71-2.83c-.66-1.22-.99-2.64-.99-4.26 0-1.15.19-2.22.57-3.19.38-.98.91-1.83 1.59-2.56.69-.74 1.51-1.31 2.44-1.72.94-.41 1.97-.62 3.09-.62s2.22.23 3.17.69c.94.46 1.76 1.15 2.46 2.06l-1.12 1.12v-9.72h4.92v21.6h-4.25v-3.97l.68 1.11c-.44.98-1.18 1.78-2.21 2.4-1.03.61-2.28.92-3.74.92zm.92-4.23c.7 0 1.33-.16 1.89-.47.56-.32 1-.77 1.32-1.35s.48-1.26.48-2.06-.16-1.48-.48-2.05c-.31-.58-.74-1.03-1.31-1.34-.56-.32-1.19-.48-1.9-.48s-1.35.16-1.9.48c-.56.31-1 .76-1.32 1.34-.32.57-.48 1.25-.48 2.05s.16 1.48.48 2.06c.33.58.78 1.03 1.33 1.35.56.31 1.19.47 1.89.47z"/><path d="m91.06 35.29v-15.3h4.92v15.3zm2.46-17.56c-.79 0-1.48-.25-2.07-.74-.58-.5-.87-1.16-.87-1.99s.29-1.52.87-2.01c.59-.49 1.28-.74 2.07-.74s1.49.25 2.07.74.87 1.16.87 2.01-.29 1.49-.87 1.99c-.58.49-1.27.74-2.07.74z"/><path d="m82.94 35.29v-21.6h4.92v21.6z"/><path d="m72.44 35.74c-1.59 0-3.14-.24-4.64-.7-1.5-.47-2.77-1.15-3.81-2.04l2.34-3.72c.44.47 1 .88 1.68 1.22s1.41.6 2.18.8c.78.18 1.54.27 2.26.27 1.03 0 1.86-.17 2.5-.51.65-.35.98-.85.98-1.51 0-.54-.24-.99-.71-1.37-.46-.37-1.32-.72-2.6-1.06l-1.8-.51c-2.16-.6-3.71-1.42-4.66-2.46s-1.43-2.29-1.43-3.75c0-.94.2-1.8.6-2.59.4-.8.96-1.49 1.68-2.07.72-.59 1.57-1.05 2.54-1.36.98-.33 2.04-.5 3.19-.5 1.59 0 3.06.24 4.42.7 1.37.46 2.47 1.09 3.3 1.89l-2.43 3.6c-.38-.4-.85-.75-1.41-1.05s-1.17-.53-1.83-.7-1.33-.25-2-.25-1.24.08-1.72.25-.88.41-1.15.74c-.27.31-.4.68-.4 1.11 0 .35.1.65.3.88.21.23.56.45 1.04.66.49.21 1.15.44 1.98.69l1.83.54c2.15.63 3.71 1.42 4.67 2.37s1.44 2.18 1.44 3.7c0 1.33-.34 2.51-1.02 3.53-.68 1.01-1.64 1.8-2.89 2.37-1.24.57-2.72.85-4.43.85z"/></g></svg>