<svg width="80" height="85" viewBox="0 0 80 85" fill="none" xmlns="http://www.w3.org/2000/svg">
<ellipse cx="39.4407" cy="78.6387" rx="30.3098" ry="6.36132" fill="black" fill-opacity="0.1"/>
<g filter="url(#filter0_i_13460_54520)">
<path d="M70.2936 50.3232C65.1739 65.7994 49.3932 67.5461 31.941 62.8698C14.4888 58.1935 1.69507 47.9854 5.70587 33.017C11.0105 13.2197 28.2977 3.68351 47.6854 8.87786C70.296 14.9357 74.4296 37.8206 70.2936 50.3232Z" fill="#ECECEC"/>
</g>
<ellipse cx="47.7471" cy="41.9287" rx="10.6384" ry="10.6384" transform="rotate(15 47.7471 41.9287)" fill="white"/>
<ellipse cx="51.8596" cy="40.2158" rx="5.49142" ry="5.49142" transform="rotate(15 51.8596 40.2158)" fill="#949494"/>
<ellipse cx="53.8429" cy="38.5359" rx="1.62839" ry="1.62839" transform="rotate(15 53.8429 38.5359)" fill="#B8B8B8"/>
<ellipse cx="29.0487" cy="36.9498" rx="10.6396" ry="10.6396" transform="rotate(15 29.0487 36.9498)" fill="white"/>
<ellipse cx="32.9377" cy="35.3325" rx="5.49142" ry="5.49142" transform="rotate(15 32.9377 35.3325)" fill="#949494"/>
<ellipse cx="35.5323" cy="33.6526" rx="1.62839" ry="1.62839" transform="rotate(15 35.5323 33.6526)" fill="#B8B8B8"/>
<ellipse cx="36.6428" cy="49.6944" rx="2.61937" ry="1.57548" transform="rotate(87.689 36.6428 49.6944)" fill="#A8A8A8"/>
<g filter="url(#filter1_i_13460_54520)">
<ellipse cx="20.3701" cy="59.5217" rx="6.73551" ry="6.73551" transform="rotate(15 20.3701 59.5217)" fill="#D4D4D4"/>
</g>
<defs>
<filter id="filter0_i_13460_54520" x="4.96484" y="7.47852" width="66.75" height="57.6709" filterUnits="userSpaceOnUse" color-interpolation-filters="sRGB">
<feFlood flood-opacity="0" result="BackgroundImageFix"/>
<feBlend mode="normal" in="SourceGraphic" in2="BackgroundImageFix" result="shape"/>
<feColorMatrix in="SourceAlpha" type="matrix" values="0 0 0 0 0 0 0 0 0 0 0 0 0 0 0 0 0 0 127 0" result="hardAlpha"/>
<feOffset dx="-11" dy="-6"/>
<feComposite in2="hardAlpha" operator="arithmetic" k2="-1" k3="1"/>
<feColorMatrix type="matrix" values="0 0 0 0 0.765385 0 0 0 0 0.765385 0 0 0 0 0.765385 0 0 0 0.22 0"/>
<feBlend mode="normal" in2="shape" result="effect1_innerShadow_13460_54520"/>
</filter>
<filter id="filter1_i_13460_54520" x="13.6328" y="52.7847" width="13.4746" height="13.4741" filterUnits="userSpaceOnUse" color-interpolation-filters="sRGB">
<feFlood flood-opacity="0" result="BackgroundImageFix"/>
<feBlend mode="normal" in="SourceGraphic" in2="BackgroundImageFix" result="shape"/>
<feColorMatrix in="SourceAlpha" type="matrix" values="0 0 0 0 0 0 0 0 0 0 0 0 0 0 0 0 0 0 127 0" result="hardAlpha"/>
<feOffset dx="-4" dy="-4"/>
<feComposite in2="hardAlpha" operator="arithmetic" k2="-1" k3="1"/>
<feColorMatrix type="matrix" values="0 0 0 0 0 0 0 0 0 0 0 0 0 0 0 0 0 0 0.05 0"/>
<feBlend mode="normal" in2="shape" result="effect1_innerShadow_13460_54520"/>
</filter>
</defs>
</svg>
