<svg fill="none" height="32" viewBox="0 0 32 32" width="32" xmlns="http://www.w3.org/2000/svg" xmlns:xlink="http://www.w3.org/1999/xlink"><linearGradient id="a" gradientUnits="userSpaceOnUse" x1="16" x2="16" y1="13.401" y2="24.7804"><stop offset="0" stop-color="#ff9035"/><stop offset="1" stop-color="#ffcc34"/></linearGradient><linearGradient id="b" gradientUnits="userSpaceOnUse" x1="16.0001" x2="16.0001" y1="13.401" y2="17.6683"><stop offset="0" stop-color="#fff"/><stop offset=".653846" stop-color="#fff"/></linearGradient><rect fill="#ffe5b7" height="32" rx="8" width="32"/><path d="m11.7676 14.1491c.2481-.4608.7291-.7481 1.2524-.7481h5.96c.5233 0 1.0043.2873 1.2524.7481l4.5956 8.5345c.5103.9477-.1761 2.0968-1.2524 2.0968h-15.15118c-1.07632 0-1.7627-1.1491-1.25241-2.0968z" fill="url(#a)"/><path d="m18.9955 13.401h-5.9908c-.4956 0-.9554.2579-1.2138.6807l-2.19178 3.5866 2.30138-1.0694c.5701-.2649 1.2281-.2649 1.7982 0l1.4023.6516c.5701.2649 1.228.2649 1.7982 0l1.4023-.6516c.5701-.2649 1.228-.2649 1.7981 0l2.3014 1.0694-2.1918-3.5866c-.2584-.4228-.7182-.6807-1.2137-.6807z" fill="url(#b)"/><g fill="#ff8442"><path d="m16 13.4008h-1.4224v-4.26726h1.4224z"/><path d="m14.5776 7.71121c0-.39279.3185-.71121.7113-.71121h5.6417c.3015 0 .4662.35164.2732.58326l-.9126 1.09507c-.2198.26375-.2198.64687 0 .91062l.9126 1.09505c.193.2316.0283.5833-.2732.5833h-5.6417c-.3928 0-.7113-.3184-.7113-.7112z"/></g></svg>