<svg fill="none" height="39" viewBox="0 0 39 39" width="39" xmlns="http://www.w3.org/2000/svg" xmlns:xlink="http://www.w3.org/1999/xlink"><filter id="a" color-interpolation-filters="sRGB" filterUnits="userSpaceOnUse" height="19.5071" width="25.0088" x="6.36133" y="8.85266"><feFlood flood-opacity="0" result="BackgroundImageFix"/><feBlend in="SourceGraphic" in2="BackgroundImageFix" mode="normal" result="shape"/><feColorMatrix in="SourceAlpha" result="hardAlpha" type="matrix" values="0 0 0 0 0 0 0 0 0 0 0 0 0 0 0 0 0 0 127 0"/><feOffset dx="-2.87111" dy="-.957037"/><feComposite in2="hardAlpha" k2="-1" k3="1" operator="arithmetic"/><feColorMatrix type="matrix" values="0 0 0 0 0.957692 0 0 0 0 0.508406 0 0 0 0 0.3002 0 0 0 0.36 0"/><feBlend in2="shape" mode="normal" result="effect1_innerShadow_13460_64345"/></filter><circle cx="19.1407" cy="19.1407" fill="#f9f4d3" r="19.1407"/><circle cx="23.8323" cy="18.5585" fill="#fff" r="3.72441"/><circle cx="24.7934" cy="17.8379" fill="#333" r="1.92228"/><circle cx="16.9842" cy="18.5585" fill="#fff" r="3.72441"/><circle cx="18.1855" cy="17.8379" fill="#333" r="1.92228"/><path d="m21.8145 23.4476c0 .2642-.4285.4785-.9571.4785-.5285 0-.957-.2143-.957-.4785" stroke="#96582d" stroke-linecap="round" stroke-width=".957037"/><ellipse cx="19.6612" cy="27.9934" fill="#f1debe" rx="11.2452" ry="2.15333"/><g filter="url(#a)"><path d="m31.3563 20.9531c-.3513 6.0833-5.7525 7.4067-12.5064 7.4067s-12.48857-1.614-12.48857-7.4067c0-7.6614 6.26727-12.10044 13.02117-12.10044 8.1806 0 12.2575 7.18594 11.9738 12.10044z" fill="#ffb951"/></g><circle cx="22.483" cy="20.1147" fill="#fff" r="3.97716"/><circle cx="23.5093" cy="19.3448" fill="#333" r="2.05273"/><circle cx="15.1705" cy="20.1147" fill="#fff" r="3.97716"/><circle cx="16.4536" cy="19.3448" fill="#333" r="2.05273"/><path d="m19.5691 24.3687c0 .3588-.3532.6497-.7889.6497-.4358 0-.789-.2909-.789-.6497" stroke="#78431d" stroke-linecap="round" stroke-width=".478518"/></svg>