<svg width="39" height="39" viewBox="0 0 39 39" fill="none" xmlns="http://www.w3.org/2000/svg">
<circle cx="19.1407" cy="19.1407" r="19.1407" fill="#F9F4D3"/>
<circle cx="23.8323" cy="18.5585" r="3.72441" fill="white"/>
<circle cx="24.7934" cy="17.8379" r="1.92228" fill="#333333"/>
<circle cx="16.9842" cy="18.5585" r="3.72441" fill="white"/>
<circle cx="18.1855" cy="17.8379" r="1.92228" fill="#333333"/>
<path d="M21.8145 23.4476C21.8145 23.7118 21.386 23.9261 20.8574 23.9261C20.3289 23.9261 19.9004 23.7118 19.9004 23.4476" stroke="#96582D" stroke-width="0.957037" stroke-linecap="round"/>
<ellipse cx="19.6612" cy="27.9934" rx="11.2452" ry="2.15333" fill="#F1DEBE"/>
<g filter="url(#filter0_i_13460_64345)">
<path d="M31.3563 20.9531C31.005 27.0364 25.6038 28.3598 18.8499 28.3598C12.096 28.3598 6.36133 26.7458 6.36133 20.9531C6.36133 13.2917 12.6286 8.85266 19.3825 8.85266C27.5631 8.85266 31.64 16.0386 31.3563 20.9531Z" fill="#FFB951"/>
</g>
<circle cx="22.483" cy="20.1147" r="3.97716" fill="white"/>
<circle cx="23.5093" cy="19.3448" r="2.05273" fill="#333333"/>
<circle cx="15.1705" cy="20.1147" r="3.97716" fill="white"/>
<circle cx="16.4536" cy="19.3448" r="2.05273" fill="#333333"/>
<path d="M19.5691 24.3687C19.5691 24.7275 19.2159 25.0184 18.7802 25.0184C18.3444 25.0184 17.9912 24.7275 17.9912 24.3687" stroke="#78431D" stroke-width="0.478518" stroke-linecap="round"/>
<defs>
<filter id="filter0_i_13460_64345" x="6.36133" y="8.85266" width="25.0088" height="19.5071" filterUnits="userSpaceOnUse" color-interpolation-filters="sRGB">
<feFlood flood-opacity="0" result="BackgroundImageFix"/>
<feBlend mode="normal" in="SourceGraphic" in2="BackgroundImageFix" result="shape"/>
<feColorMatrix in="SourceAlpha" type="matrix" values="0 0 0 0 0 0 0 0 0 0 0 0 0 0 0 0 0 0 127 0" result="hardAlpha"/>
<feOffset dx="-2.87111" dy="-0.957037"/>
<feComposite in2="hardAlpha" operator="arithmetic" k2="-1" k3="1"/>
<feColorMatrix type="matrix" values="0 0 0 0 0.957692 0 0 0 0 0.508406 0 0 0 0 0.3002 0 0 0 0.36 0"/>
<feBlend mode="normal" in2="shape" result="effect1_innerShadow_13460_64345"/>
</filter>
</defs>
</svg>
