<svg width="32" height="32" viewBox="0 0 32 32" fill="none" xmlns="http://www.w3.org/2000/svg">
<rect width="32" height="32" rx="8" fill="#FFE5B7"/>
<path d="M11.7676 14.1484C12.0157 13.6877 12.4967 13.4004 13.02 13.4004H18.98C19.5033 13.4004 19.9843 13.6877 20.2324 14.1484L24.828 22.683C25.3383 23.6307 24.6519 24.7798 23.5756 24.7798H8.42442C7.3481 24.7798 6.66172 23.6307 7.17201 22.683L11.7676 14.1484Z" fill="url(#paint0_linear_13460_61373)"/>
<path d="M18.995 13.4004H13.0042C12.5087 13.4004 12.0488 13.6583 11.7904 14.0811L9.59863 17.6677L11.9 16.5983C12.4702 16.3334 13.1281 16.3334 13.6982 16.5983L15.1005 17.2499C15.6706 17.5148 16.3286 17.5148 16.8987 17.2499L18.301 16.5983C18.8711 16.3334 19.529 16.3334 20.0991 16.5983L22.4005 17.6677L20.2087 14.0811C19.9503 13.6583 19.4905 13.4004 18.995 13.4004Z" fill="url(#paint1_linear_13460_61373)"/>
<path d="M16 13.4001L14.5776 13.4001L14.5776 9.13281L16 9.13281L16 13.4001Z" fill="#FF8442"/>
<path d="M14.5771 7.71121C14.5771 7.31842 14.8956 7 15.2884 7H20.9301C21.2316 7 21.3963 7.35164 21.2033 7.58326L20.2907 8.67833C20.0709 8.94208 20.0709 9.3252 20.2907 9.58895L21.2033 10.684C21.3963 10.9156 21.2316 11.2673 20.9301 11.2673H15.2884C14.8956 11.2673 14.5771 10.9489 14.5771 10.5561V7.71121Z" fill="#FF8442"/>
<defs>
<linearGradient id="paint0_linear_13460_61373" x1="16" y1="13.4004" x2="16" y2="24.7798" gradientUnits="userSpaceOnUse">
<stop stop-color="#FF9035"/>
<stop offset="1" stop-color="#FFCC34"/>
</linearGradient>
<linearGradient id="paint1_linear_13460_61373" x1="15.9996" y1="13.4004" x2="15.9996" y2="17.6677" gradientUnits="userSpaceOnUse">
<stop stop-color="white"/>
<stop offset="0.653846" stop-color="white"/>
</linearGradient>
</defs>
</svg>
