<svg width="174" height="140" viewBox="0 0 174 140" fill="none" xmlns="http://www.w3.org/2000/svg">
<ellipse cx="86.7573" cy="128.834" rx="49.6568" ry="10.4218" fill="black" fill-opacity="0.05"/>
<g filter="url(#filter0_i_13460_64550)">
<path d="M137.303 82.4448C128.915 107.8 103.061 110.661 74.4692 103C45.8772 95.3388 24.9171 78.6149 31.488 54.0919C40.1787 21.6579 68.5005 6.03473 100.263 14.5447C137.306 24.4693 144.079 61.9617 137.303 82.4448Z" fill="#ECECEC"/>
</g>
<circle cx="100.366" cy="68.6902" r="17.4289" transform="rotate(15 100.366 68.6902)" fill="white"/>
<circle cx="107.105" cy="65.8842" r="8.99663" transform="rotate(15 107.105 65.8842)" fill="#949494"/>
<circle cx="110.354" cy="63.133" r="2.6678" transform="rotate(15 110.354 63.133)" fill="#B8B8B8"/>
<circle cx="69.7323" cy="60.5347" r="17.431" transform="rotate(15 69.7323 60.5347)" fill="white"/>
<circle cx="76.1043" cy="57.8842" r="8.99663" transform="rotate(15 76.1043 57.8842)" fill="#949494"/>
<circle cx="80.3532" cy="55.133" r="2.6678" transform="rotate(15 80.3532 55.133)" fill="#B8B8B8"/>
<ellipse cx="82.1751" cy="81.4144" rx="4.29133" ry="2.58112" transform="rotate(87.689 82.1751 81.4144)" fill="#A8A8A8"/>
<g filter="url(#filter1_i_13460_64550)">
<circle cx="55.5152" cy="97.5149" r="11.0348" transform="rotate(15 55.5152 97.5149)" fill="#D4D4D4"/>
</g>
<defs>
<filter id="filter0_i_13460_64550" x="30.2754" y="12.2522" width="109.354" height="94.4824" filterUnits="userSpaceOnUse" color-interpolation-filters="sRGB">
<feFlood flood-opacity="0" result="BackgroundImageFix"/>
<feBlend mode="normal" in="SourceGraphic" in2="BackgroundImageFix" result="shape"/>
<feColorMatrix in="SourceAlpha" type="matrix" values="0 0 0 0 0 0 0 0 0 0 0 0 0 0 0 0 0 0 127 0" result="hardAlpha"/>
<feOffset dx="-11" dy="-6"/>
<feComposite in2="hardAlpha" operator="arithmetic" k2="-1" k3="1"/>
<feColorMatrix type="matrix" values="0 0 0 0 0.765385 0 0 0 0 0.765385 0 0 0 0 0.765385 0 0 0 0.22 0"/>
<feBlend mode="normal" in2="shape" result="effect1_innerShadow_13460_64550"/>
</filter>
<filter id="filter1_i_13460_64550" x="44.4775" y="86.4773" width="22.0752" height="22.0752" filterUnits="userSpaceOnUse" color-interpolation-filters="sRGB">
<feFlood flood-opacity="0" result="BackgroundImageFix"/>
<feBlend mode="normal" in="SourceGraphic" in2="BackgroundImageFix" result="shape"/>
<feColorMatrix in="SourceAlpha" type="matrix" values="0 0 0 0 0 0 0 0 0 0 0 0 0 0 0 0 0 0 127 0" result="hardAlpha"/>
<feOffset dx="-4" dy="-4"/>
<feComposite in2="hardAlpha" operator="arithmetic" k2="-1" k3="1"/>
<feColorMatrix type="matrix" values="0 0 0 0 0 0 0 0 0 0 0 0 0 0 0 0 0 0 0.05 0"/>
<feBlend mode="normal" in2="shape" result="effect1_innerShadow_13460_64550"/>
</filter>
</defs>
</svg>
