<svg fill="none" height="48" viewBox="0 0 48 48" width="48" xmlns="http://www.w3.org/2000/svg"><rect fill="#ff8442" height="48" rx="12" width="48"/><path d="m30.3082 18.1154h-.6429c-.8571 0-1.7143.0769-2.5714.2692-.8572.2308-1.4286.6154-1.6429 1.1539-.0714.1538-.0714.3077-.0714.4615 0 .5385.4286 1 1.0714 1.4231.5.3077 1.1429.6154 1.7143.9231 1 .6153 3.5 1.0384 4.5714 1.5769 1.1429.5384 2.1429 1.1154 3.2143 1.6923 1.0715.6154 1.5715 1.3846 1.9286 2.1538.2857.6154.4286 1.1923.4286 1.8077 0 .3846-.0715.8077-.2143 1.1923-.1429.9616-.9286 1.7693-1.5 2.577-.4286.5-1.0714.923-1.5714 1.423-.1429.1923-.5.3462-.7858.5385-.7142.4231-1.5.8077-2.4285 1.1154-.0715.0384-.2143.0769-.3572.1154-2.7143.6923-5.5 1.1923-9.4285 1.3846-.8572.0384-2.2143.0769-3.2143.0769h-.4286c-1.7857 0-2.0225-.0769-3.3796-.0769-.5 0-1.5714-.2693-2-.4231-1-.5-1.1836-.6336-1.5-1-.5979-.6923-1.5-1.5385-1.5-2.5 0-1.2692 0-.8462 0-2 0-.5769.9021-2.0492.9021-2.0492s.0979-.4508.5979-.9508l1-.5s1.1428-.5 1.5-.5c0 0 .5225.0385 1.6653.0385.9286 0 1.8572-.0385 2.5714-.1539 1.7143-.2692 3.2858-.6923 4.4286-1.4615.5714-.3846.8572-.8462.8572-1.2693 0-.4615-.3572-.923-1-1.2307-.5-.3077-.9286-.6154-1.4286-.9231-.7857-.4231-2-.8077-2.9286-1.1538-.7143-.2308-1.3571-.5-1.9286-.7693-.8571-.4231-1.7142-.8846-2.5-1.3461-1.0714-.6539-1.7142-1.3077-2.5-2.2308-.5-.6538-.6428-1.0769-.7142-1.7692v-.2308c0-1.8462 2.2142-2.9615 4.2142-3.7692 2.5715-1.077 5.7143-1.4231 9.9286-1.6539 1-.0769 2.0714-.0769 3.0714-.0769 2.9286 0 6.6429 0 8.8572.8077.7857.6923 1.1428.7692 1.2857 1.1923l.3571 1.0769c0 .4231 0 .7308.0715 1.4231.0714.3846.0714.5769.0714.9615 0 .6923-.0714.778-.5 1.0385l-.5.5c-1 .5-2 1-2.5 1-.5714 0-2.5.1154-4.5714.1154z" fill="#fff"/></svg>